<svg xmlns="http://www.w3.org/2000/svg" viewBox="0 0 9025.96 1109.14"><g><path fill="white" d="M-0 1031.29c0,-23.52 9.87,-45.16 29.87,-64.91 19.99,-19.52 42.56,-29.4 67.26,-29.4l12.46 0c50.57,0 93.84,-18.58 129.83,-55.5 35.98,-36.93 54.09,-81.14 54.09,-132.41l0 -576.68c0,-23.05 11.05,-43.51 33.4,-61.86 22.1,-18.11 46.33,-27.28 72.9,-27.28l94.08 0 0 635.24c0,52.92 -10.11,103.25 -30.34,151.46 -19.99,48.45 -47.27,89.84 -81.38,124.89 -34.33,34.8 -75.02,62.56 -122.06,83.25 -47.27,20.7 -97.13,31.05 -149.34,31.05l-110.77 0 0 -77.85zm628.89 -361.95c0,-65.86 16.23,-127.24 48.68,-184.15 32.22,-56.68 75.5,-101.37 129.35,-134.06 54.1,-32.69 111.72,-49.15 173.34,-49.15 62.09,0 119.94,16.46 174.04,49.15 53.85,32.69 96.89,77.14 129.11,133.82 32.22,56.45 48.22,118.06 48.22,184.39 0,28.22 -1.89,53.38 -5.41,75.73l-529.17 0c12.93,45.39 35.27,80.43 67.26,105.36 31.75,24.7 70.56,37.16 115.95,37.16 36.69,0 71.73,-10.11 104.65,-30.34 12,-6.11 22.35,-9.17 31.05,-9.17 10.11,0 21.4,2.12 33.87,6.35l101.36 41.39c-32.69,42.57 -72.44,75.73 -119.24,99.25 -47.04,23.28 -97.36,35.04 -151.69,35.04 -61.62,0 -119.24,-16.22 -173.34,-48.68 -53.85,-32.46 -97.13,-76.67 -129.35,-132.41 -32.45,-55.74 -48.68,-115.71 -48.68,-179.68zm160.87 1.41c5.88,-16.7 17.87,-32.22 35.51,-46.57 17.64,-14.35 39.98,-21.64 67.26,-21.64l270.7 0c-10.58,-47.97 -32.45,-86.31 -65.85,-115 -33.4,-28.69 -71.97,-43.04 -116.18,-43.04 -55.51,0 -100.9,20.46 -136.41,61.62 -35.28,41.16 -53.62,95.95 -55.03,164.63zm612.19 -1.88c0,-66.09 15.76,-127 47.04,-183.21 31.51,-55.98 74.55,-100.66 129.58,-133.82 55.04,-33.17 115.24,-49.86 180.86,-49.86 29.87,0 61.39,4.46 94.55,13.4 33.39,9.17 62.32,20.93 87.25,35.75 6.82,-9.64 16.46,-17.4 28.93,-23.28 12.23,-5.88 24.69,-8.94 37.16,-8.94l80.43 0 0 659.23c0,9.17 -4.7,17.17 -14.11,24.46 -9.41,7.05 -19.75,10.58 -31.28,10.58l-122.53 0 0 -16.93c-52.45,22.57 -106.07,33.86 -160.4,33.86 -49.15,0 -95.72,-9.4 -139.93,-28.45 -44.22,-19.05 -82.32,-44.69 -114.07,-77.15 -31.99,-32.45 -57.15,-71.02 -75.73,-115.47 -18.58,-44.69 -27.75,-91.25 -27.75,-140.17zm167.92 0c0,65.14 17.64,117.35 53.15,156.16 35.52,38.81 83.02,58.33 142.53,58.33 37.86,0 68.44,-3.3 91.95,-9.65 23.52,-6.58 44.45,-17.4 62.33,-32.69l0 -345.72c-34.57,-31.05 -86.08,-46.57 -154.28,-46.57 -59.51,0 -107.01,20.23 -142.53,60.44 -35.51,40.22 -53.15,93.37 -53.15,159.7zm700.85 344.31l0 -658.52c0,-9.17 4.71,-17.41 13.88,-24.7 9.17,-7.29 19.28,-11.05 30.34,-11.05l235.89 0c59.03,0 112.42,11.52 160.63,34.34 47.98,23.04 87.02,57.85 116.89,104.89 29.87,46.8 44.92,102.07 44.92,165.81l0 324.55c0,16.94 -9.17,31.99 -27.75,45.16 -18.58,12.93 -38.57,19.52 -60.44,19.52l-79.73 0 0 -383.59c0,-54.8 -13.41,-96.43 -40.22,-125.12 -26.81,-28.69 -65.38,-43.04 -115.71,-43.04l-162.04 0c34.1,17.88 51.27,48.45 51.27,91.72l0 424.99c0,9.17 -4.71,17.17 -13.88,24.46 -9.17,7.05 -19.52,10.58 -30.57,10.58l-123.48 0zm777.29 0l0 -832.09c0,-26.58 11.06,-49.62 32.93,-68.91 22.11,-19.29 47.27,-28.93 75.73,-28.93l488.25 0 0 172.16 -396.53 0 0 275.4c5.88,-17.17 17.88,-31.04 35.99,-41.86 18.1,-10.82 41.39,-16.23 69.85,-16.23l258.23 0 0 162.28 -364.07 0 0 378.18 -200.38 0zm724.85 0l0 -658.52c0,-9.17 4.71,-17.41 13.88,-24.7 9.17,-7.29 19.28,-11.05 30.1,-11.05l235.66 0c88.67,0 165.1,29.16 229.54,87.49 -6.58,10.11 -14.34,20.69 -23.99,31.51 -9.4,11.06 -22.81,22.58 -40.45,34.11 -17.87,11.75 -34.57,17.63 -50.8,17.63 -11.99,0 -27.05,-4.93 -45.39,-15.05 -16.46,-8.7 -39.98,-13.17 -70.32,-13.17l-162.52 0c18.35,9.17 31.52,22.34 39.75,39.28 8.23,16.93 12.47,34.34 12.47,52.44l0 424.99c0,9.17 -4.71,17.17 -14.35,24.46 -9.64,7.05 -19.99,10.58 -31.04,10.58l-122.54 0zm516.24 -344.31c0,-66.09 15.76,-127 47.04,-183.21 31.51,-55.98 74.55,-100.66 129.58,-133.82 55.04,-33.17 115.24,-49.86 180.86,-49.86 29.87,0 61.39,4.46 94.55,13.4 33.39,9.17 62.32,20.93 87.25,35.75 6.82,-9.64 16.46,-17.4 28.93,-23.28 12.23,-5.88 24.69,-8.94 37.16,-8.94l80.43 0 0 659.23c0,9.17 -4.7,17.17 -14.11,24.46 -9.41,7.05 -19.75,10.58 -31.28,10.58l-122.53 0 0 -16.93c-52.45,22.57 -106.07,33.86 -160.4,33.86 -49.15,0 -95.72,-9.4 -139.93,-28.45 -44.22,-19.05 -82.32,-44.69 -114.07,-77.15 -31.99,-32.45 -57.15,-71.02 -75.73,-115.47 -18.58,-44.69 -27.75,-91.25 -27.75,-140.17zm167.92 0c0,65.14 17.64,117.35 53.15,156.16 35.52,38.81 83.02,58.33 142.53,58.33 37.86,0 68.44,-3.3 91.95,-9.65 23.52,-6.58 44.45,-17.4 62.33,-32.69l0 -345.72c-34.57,-31.05 -86.08,-46.57 -154.28,-46.57 -59.51,0 -107.01,20.23 -142.53,60.44 -35.51,40.22 -53.15,93.37 -53.15,159.7zm700.85 344.31l0 -658.52c0,-9.17 4.71,-17.41 13.88,-24.7 9.17,-7.29 19.28,-11.05 30.34,-11.05l235.89 0c59.03,0 112.42,11.52 160.63,34.34 47.98,23.04 87.02,57.85 116.89,104.89 29.87,46.8 44.92,102.07 44.92,165.81l0 324.55c0,16.94 -9.17,31.99 -27.75,45.16 -18.58,12.93 -38.57,19.52 -60.44,19.52l-79.73 0 0 -383.59c0,-54.8 -13.41,-96.43 -40.22,-125.12 -26.81,-28.69 -65.38,-43.04 -115.71,-43.04l-162.04 0c34.1,17.88 51.27,48.45 51.27,91.72l0 424.99c0,9.17 -4.71,17.17 -13.88,24.46 -9.17,7.05 -19.52,10.58 -30.57,10.58l-123.48 0zm720.61 -551.75l0 -60.68c0,-20.22 11.06,-38.8 32.93,-55.97 21.64,-17.17 46.57,-25.87 74.55,-25.87l420.52 0 0 95.25c0,28.93 -12.7,60.21 -38.1,93.37l-286.46 363.13 336.08 0 0 68.2c0,14.58 -7.29,30.58 -22.34,47.98 -14.82,17.64 -38.1,26.34 -69.85,26.34l-444.5 0 0 -90.31c0,-29.4 13.4,-60.68 39.98,-94.31l288.81 -367.13 -331.62 0zm674.51 537.4c-19.99,-20.93 -29.86,-45.62 -29.86,-74.55 0,-28.93 9.87,-53.62 29.86,-74.55 19.76,-20.94 43.51,-31.28 71.03,-31.28 27.52,0 51.27,10.34 71.03,31.28 19.99,20.93 29.87,45.62 29.87,74.55 0,28.93 -9.88,53.62 -29.87,74.55 -19.76,20.94 -43.51,31.28 -71.03,31.28 -27.52,0 -51.27,-10.34 -71.03,-31.28zm287.64 -332.08c0,-62.09 16.46,-119.95 49.15,-173.33 32.93,-53.39 77.14,-95.72 132.88,-127.24 55.74,-31.51 115.95,-47.27 180.63,-47.27l117.12 0 0 -248.59c0,-19.76 8.94,-36.46 26.57,-49.86 17.88,-13.64 39.52,-20.46 65.39,-20.46l75.96 0 0 967.79c0,12.7 -4.23,23.52 -12.7,32.22 -8.46,8.7 -19.28,13.17 -31.98,13.17l-235.66 0c-64.91,0 -125.59,-15.76 -182.03,-47.04 -56.45,-31.51 -101.61,-73.85 -135,-127.23 -33.63,-53.39 -50.33,-110.78 -50.33,-172.16zm170.74 0c0,64.91 18.35,115.24 55.04,150.75 36.69,35.52 85.13,53.16 145.34,53.16l108.66 0 0 -313.04c0,-42.57 16.93,-74.55 50.56,-96.19l-163.22 0c-59.26,0 -106.77,18.11 -142.75,54.33 -35.75,36.22 -53.63,86.55 -53.63,150.99zm603.73 2.59c0,-65.86 16.23,-127.24 48.68,-184.15 32.22,-56.68 75.5,-101.37 129.35,-134.06 54.1,-32.69 111.72,-49.15 173.34,-49.15 62.09,0 119.94,16.46 174.04,49.15 53.85,32.69 96.89,77.14 129.11,133.82 32.22,56.45 48.22,118.06 48.22,184.39 0,28.22 -1.89,53.38 -5.41,75.73l-529.17 0c12.93,45.39 35.27,80.43 67.26,105.36 31.75,24.7 70.56,37.16 115.95,37.16 36.69,0 71.73,-10.11 104.65,-30.34 12,-6.11 22.35,-9.17 31.05,-9.17 10.11,0 21.4,2.12 33.87,6.35l101.36 41.39c-32.69,42.57 -72.44,75.73 -119.24,99.25 -47.04,23.28 -97.36,35.04 -151.69,35.04 -61.62,0 -119.24,-16.22 -173.34,-48.68 -53.85,-32.46 -97.13,-76.67 -129.35,-132.41 -32.45,-55.74 -48.68,-115.71 -48.68,-179.68zm160.87 1.41c5.88,-16.7 17.87,-32.22 35.51,-46.57 17.64,-14.35 39.98,-21.64 67.26,-21.64l270.7 0c-10.58,-47.97 -32.45,-86.31 -65.85,-115 -33.4,-28.69 -71.97,-43.04 -116.18,-43.04 -55.51,0 -100.9,20.46 -136.41,61.62 -35.28,41.16 -53.62,95.95 -55.03,164.63zm548.69 -351.84l128.18 0c14.58,0 28.22,5.41 40.68,16.46 12.47,11.06 21.64,24.46 27.52,39.98l156.4 424.99 160.63 -424.99c5.88,-15.52 15.05,-28.92 27.52,-39.98 12.46,-11.05 25.87,-16.46 40.69,-16.46l119.71 0 -273.53 694.27 -159.69 0 -268.11 -694.27z" /></g></svg>